<?xml version="1.0" encoding="utf-8"?>
<!-- Generator: Adobe Illustrator 17.1.0, SVG Export Plug-In . SVG Version: 6.00 Build 0)  -->
<!DOCTYPE svg PUBLIC "-//W3C//DTD SVG 1.1//EN" "http://www.w3.org/Graphics/SVG/1.1/DTD/svg11.dtd">
<svg version="1.1" id="Layer_1" xmlns="http://www.w3.org/2000/svg" xmlns:xlink="http://www.w3.org/1999/xlink" x="0px" y="0px"
	 width="512px" height="512px" viewBox="0 0 512 512" enable-background="new 0 0 512 512" xml:space="preserve">
<g id="Layer_1_1_">
	<g>
		<path d="M127.2,190.3c-1.1,9.9,5.2,18.8,5.2,18.8c0.6-7.4,2.2-12.5,3.9-16.3c0.4,10.1,3.1,23.2,12.5,33.6c6.8,7.5,35,23,54,6
			c1,2.4,2,5.3,2.9,8.3c2.8,10.1-2.6,24.9-2.6,24.9s14.9-16.8,13.7-32.1c10.6-0.5,21.2-8.3,20.8-19.2c0,0-18.5,10.2-35-8.6
			c-9.6-11-40.3-41.4-81.9-31.3c4.3,0.9,8.8,2.3,13.4,4h-0.1C130.1,180.3,127.7,185.4,127.2,190.3z M155.1,188.4
			c19.2,10.8,36.9,25.3,44.2,36.4l0,0l0,0l0,0c-5.7,3.2-21.4,10.3-37.3-1.6C151.7,215.8,152.2,197.5,155.1,188.4z"/>
		<path d="M224.4,416h-6.3c-6.6,0-14.3,0-18.8,0h-3.8c-5.4,0-8.1,1.5-9.3,2.8c-1.8,1.9-2.1,4.5-0.9,7.8c3.4,8.7,11.2,15.9,13.5,17.9
			c3,2.6,7.3,4.1,11.5,4.1c4.4,0,8.2-1.5,10.8-4.4c7.4-7.9,11.7-16.4,12.9-19c0.6-1.5,1.3-4.4-0.9-6.6
			C231.4,416.9,228.4,416,224.4,416z"/>
		<path d="M295,233.7c-1.1,15.3,13.7,32,13.7,32s-5.5-14.8-2.6-24.9c0.9-3.1,1.9-6,2.9-8.3c18.9,17,47.3,1.5,54-6
			c9.4-10.4,12.1-23.5,12.5-33.6c1.8,3.7,3.3,9,3.9,16.3c0,0,6.3-9,5.2-18.8c-0.5-4.9-2.8-9.9-6.9-11.6h-0.1c4.6-1.7,9-3.1,13.4-4
			c-41.6-10.1-72.4,20.2-81.9,31.3c-16.4,18.8-34.9,8.6-34.9,8.6C274,225.4,284.4,233.2,295,233.7z M312.5,225
			c7.4-11.2,25-25.7,44.2-36.4c2.9,8.9,3.3,27.2-6.9,34.9C333.9,235.3,318.2,228.2,312.5,225L312.5,225z"/>
		<path d="M316.6,416.1h-3.8c-4.6,0-12.2,0-18.8,0h-6.3c-4.1,0-7,0.9-8.7,2.6c-2.1,2.2-1.5,5.1-0.9,6.6c1,2.6,5.5,11.1,12.9,19
			c2.6,2.8,6.5,4.4,10.8,4.4c4.3,0,8.6-1.5,11.5-4.1c2.3-2,10.1-9.1,13.5-17.9c1.3-3.2,1-5.9-0.9-7.8
			C324.6,417.6,321.9,416.1,316.6,416.1z"/>
		<path d="M255.8,188.6L255.8,188.6C255.9,188.6,255.9,188.6,255.8,188.6c0.1,0,0.1,0,0.1,0l0,0c12.5-0.1,26.8-17.5,26.8-17.5
			c-9.8,6-18.5,8-26.9,8.2c-8.3-0.2-17.1-2.2-26.9-8.2C229,171.1,243.3,188.5,255.8,188.6z"/>
		<path d="M410.8,316.3c-2.3,17.6-12.9,33.3-24.2,43.1c-3-22.4-3.6-54.7-3.6-61.4c0-14.5,9.3-24.2,12-25.7c2.5-1.4,5.3-2.9,8.2-4.5
			c17.7-9.5,39.8-21.3,39.8-43.1c0-15.9-9.1-22.9-15.2-27.4c-0.8-0.6-1.5-1.1-2.1-1.6c-2-1.6-3.6-2.9-4.3-4.3
			c-4.3-9.6-3.5-33.7-1.6-37c0.5-0.6,16.5-20.6,11.5-38.6c-2-7.3-6.8-13.2-13.9-16.7c-5.3-2.6-11.7-4.1-19.2-4.5
			c-0.1-1.9-0.5-3.8-0.9-5.8c-0.6-2.5-1.1-5.3-0.9-8c0.4-4.6,0.7-8.9,2.1-11c8.3-13.2,28.4-17.3,28.6-17.4l12-2.3l-8-9.3
			c-0.1-0.2-17-17.2-45.6-17.2c-7.8,0-15.8,1.3-23.7,3.8c-23.9,7.7-42.2,30.1-48.6,38.7c-3.1-1-6.3-1.8-9.4-2.6
			c-4.1-15.6,8.8-37.9,8.8-37.9s-13.4-2.9-33.2,15c-2.5-6.4-8-20.2-1.7-36.6c-29,10.2-36.3,25.9-38.6,40.1
			c-7.5-5.4-6.7-22.7-7.1-27.1c-7.4,0.9-28.7,21.6-27.7,47.6c-1.9,0.5-3.8,1.1-5.8,1.7c-6.4-8.6-24.8-31-48.6-38.7
			c-7.9-2.5-15.9-3.8-23.7-3.8c-28.5,0-45.4,17-45.6,17.2l-8,9.3l12,2.3c0.2,0,20.2,4.3,28.6,17.4c1.4,2.2,1.7,6.5,2.1,11
			c0.2,2.7-0.3,5.4-0.9,8c-0.4,1.9-0.8,3.8-0.9,5.8c-7.5,0.3-14,1.7-19.2,4.5c-7.1,3.6-11.9,9.4-13.9,16.7
			c-4.9,17.9,11,38,11.5,38.6c1.8,3.3,2.6,27.4-1.6,37c-0.6,1.3-2.2,2.6-4.3,4.3c-0.6,0.5-1.3,1-2.1,1.6
			c-6.1,4.6-15.2,11.4-15.2,27.4c0,21.8,22.1,33.6,39.8,43.1c2.9,1.5,5.7,3,8.2,4.5c2.6,1.5,12,11.2,12,25.7
			c0,6.8-0.6,39.1-3.6,61.4c-11.3-9.7-21.9-25.5-24.2-43.1c0,0-28.7,22.3-20.3,69.7c5.2,29,22.8,45.3,46.3,53.8
			c8.7,18.8,28.9,45.1,66.3,48.9c14.3,11.6,33.9,19.1,62.5,19.2l0,0c0,0,0,0,0.1,0c0,0,0,0,0.1,0l0,0c28.6,0,48.4-7.6,62.5-19.2
			c37.3-3.8,57.7-30.2,66.3-48.9c23.5-8.5,41.1-24.8,46.3-53.8C439.6,338.5,410.8,316.3,410.8,316.3z M368,40.9
			c5.6-1.8,11.4-2.7,17.4-2.7c10.8,0,19.6,2.9,24.3,5c-3,1.3-6.3,3.1-9.5,5.3c-2.3-0.4-5.5-0.8-9.1-0.8c-10.3,0-20.1,3-28.3,8.8
			c-12.1,8.5-17.7,16.7-20.3,22.1c-2.1-1.2-4.5-2.4-7-3.6c-1.5-0.7-3.1-1.5-4.7-2.1C336.8,63.8,350.4,46.6,368,40.9z M369.4,65.8
			c5.4-4.4,11.8-6.6,19.1-6.9c-0.8,1-1.5,2-2.2,3.1c-3.2,5.2-3.7,11.4-4.4,17.5c-0.5,6.4-1,12.3-4.4,16.7c-4.1,0.8-7.9,1.7-11.3,2.6
			c-2-3-5.4-6.9-10.1-10.9C357.6,83.2,361.5,72.1,369.4,65.8z M134.2,96.3c-3.2-4.4-3.7-10.4-4.4-16.7c-0.5-6.1-1-12.3-4.4-17.5
			c-0.7-1.1-1.4-2.1-2.2-3.1c7.3,0.3,13.8,2.6,19.1,6.9c7.9,6.3,11.9,17.4,13.4,22.2c-4.9,4-8.1,7.9-10.3,11
			C142.1,98.1,138.2,97.1,134.2,96.3z M169.5,78.4c-2.6-5.4-8.2-13.5-20.3-22.1c-8.2-5.8-18-8.8-28.3-8.8c-3.5,0-6.7,0.4-9,0.8
			c-3.2-2.1-6.5-3.8-9.5-5.3c4.7-2,13.5-5,24.3-5c6,0,11.8,0.9,17.4,2.7c17.6,5.7,31.2,22.8,37.1,31.7c-1.6,0.7-3.1,1.4-4.7,2.2
			C174,76,171.6,77.2,169.5,78.4z M124.1,259.8c-2.6-1.5-5.5-3-8.3-4.6c-14.7-7.9-29.8-16.1-29.8-30.1c0-10.9,4.3-14.4,8.7-18
			l0.5-0.4c0.7-0.6,1.4-1.1,2.1-1.8c-0.9,7.1-1.9,13.2-2.6,14.7c0,0,11.9-14.8,15.5-43.6c1.4-11.3-1.1-33.8-5.1-42.4
			c0.2,4.8,0,9.6-0.3,14.2c-0.4-0.8-0.8-1.5-1.3-2.1c-3.1-3.9-11.6-17.2-9.2-26.2c0.9-3.4,3-6,6.6-7.7c3.7-1.9,8.7-2.8,14.9-2.8
			c12,0,25.5,3.6,32.4,5.9c24.7,7.8,54.5,30.5,63.1,37.1c0.2,0.2,0.4,0.3,0.4,0.3l5.5,3.8l-3.4-5.8c-0.2-0.3-18.8-30.9-52.3-45.8
			c2-2.8,7.3-8,21.3-14.9c21.2-10.3,45.7-15.5,73.2-15.5c27.4,0,52.1,5.3,73.2,15.5c14.1,6.9,19.3,12,21.3,14.9
			c-33.5,14.9-52.1,45.4-52.3,45.8l-3.4,5.8l5.5-3.8c0,0,0.2-0.1,0.4-0.3c8.6-6.8,38.4-29.3,63.1-37.1c6.9-2.2,20.3-5.9,32.4-5.9
			c6.2,0,11.1,0.9,14.9,2.8c3.5,1.8,5.7,4.4,6.6,7.7c2.4,8.9-6.1,22.3-9.2,26.2c-0.5,0.6-0.9,1.3-1.3,2.1c-0.3-4.6-0.5-9.4-0.3-14.2
			c-3.9,8.6-6.4,31.1-5.1,42.4c3.5,28.8,15.5,43.6,15.5,43.6c-0.8-1.5-1.7-7.6-2.6-14.7c0.7,0.6,1.4,1.2,2.1,1.8l0.5,0.4
			c4.5,3.6,8.7,7.1,8.7,18c0,14-15.2,22.2-29.8,30.1c-2.8,1.5-5.7,3-8.3,4.6c-8.5,5-17.7,16.5-18.8,33.7
			c-0.9,14.4,0.9,49.2,3.3,74.7c-12.2,4.8-26.3,6.3-39.1,6.7c-2-4-3.8-8.4-5.4-13c-0.7-1.9-19.3-50.3-26-61.3
			c5.4,38.4,17.2,72.6,23.2,88.3c-3.4-0.5-7.2-0.7-11.5-0.7c0,0-40.9,0-57.5,0h-0.1h-0.1c-16.6,0-57.5,0-57.5,0
			c-4.4,0-8.1,0.3-11.5,0.7c5.9-15.7,17.8-49.9,23.2-88.3c-6.7,11-25.3,59.4-26,61.3c-1.5,4.6-3.4,8.9-5.4,13
			c-12.8-0.4-26.8-1.9-39.1-6.7c2.5-25.6,4.3-60.3,3.3-74.7C141.9,276.3,132.7,264.8,124.1,259.8z M101.1,402.4
			c-11.9-19.6-8.6-53.2-3.6-58.2c10.7,33.9,46.5,43.6,73.3,44.7c-2.6,4.1-5.1,7.5-6.9,9.8c-0.5,0.5-1,1-1.4,1.4
			c-7.1,7.7-8.5,18.2-4,31.4C136.1,431.2,112.8,421.7,101.1,402.4z M146.1,445.1c6,1.1,12,1.8,18.3,2.3c3.4,7.9,7.3,15.7,12.1,22.8
			C162.3,464.5,152.5,454.5,146.1,445.1z M255.9,494.5c-59.6-0.1-77.1-45.1-83.6-63.8c-3.6-10.3-3.3-18,0.8-22.7
			c2.8-3.2,9.4-7.1,24.3-7.1H213c11.4,0,25.9,0,42.9,0c17.1,0,31.5,0,42.9,0h15.6c14.9,0,21.5,3.8,24.3,7.1
			c4.1,4.8,4.5,12.3,0.8,22.7C333.1,449.4,315.6,494.4,255.9,494.5z M335.3,470.3c4.8-7.2,8.7-14.9,12.1-22.8
			c6.3-0.5,12.3-1.2,18.3-2.3C359.4,454.5,349.6,464.5,335.3,470.3z M410.8,402.4c-11.8,19.4-35,28.9-57.3,29.2
			c4.5-13.2,3-23.7-4-31.4c-0.4-0.5-0.9-1-1.4-1.4c-1.8-2.3-4.3-5.8-6.9-9.8c26.8-1.2,62.5-10.8,73.3-44.7
			C419.4,349.1,422.8,382.7,410.8,402.4z"/>
	</g>
</g>
<g id="Layer_2">
</g>
</svg>
