<?xml version="1.0" encoding="utf-8"?>
<!-- Generator: Adobe Illustrator 17.1.0, SVG Export Plug-In . SVG Version: 6.00 Build 0)  -->
<!DOCTYPE svg PUBLIC "-//W3C//DTD SVG 1.1//EN" "http://www.w3.org/Graphics/SVG/1.1/DTD/svg11.dtd">
<svg version="1.1" id="Layer_4" xmlns="http://www.w3.org/2000/svg" xmlns:xlink="http://www.w3.org/1999/xlink" x="0px" y="0px"
	 width="512px" height="512px" viewBox="0 0 512 512" enable-background="new 0 0 512 512" xml:space="preserve">
<g>
	<path fill="#231F20" d="M315.8,203.7l0,67.6c9.4,8.7,20,15.1,34.4,0.8c17-17,5.2-28.8-5.5-39.4L315.8,203.7z"/>
	<path fill="#231F20" d="M256,0L0,256l256,256l256-256L256,0z M246.8,434L118.9,306.1c-27.7-27.7-27.7-72.6,0-100.3l0.9-0.9l0,0l8-8
		c11.1-11.1,24.9-17.7,39.3-19.9c1.6-0.2,3.5-0.3,5.2-0.1c0.1,0,1.4,0.2,1.5,0.2c0.2,0,0.3,0.1,0.5,0.1c5.2,1.4,9.4,6.4,9.4,12l0,43
		c-6.6-2.2-13.8-0.5-21.8,7.6c-17.1,17.1-5.2,28.8,5.5,39.5l28.9,28.9l0-179.8l0,0.1h0v-0.1L246.8,78V434z M388.9,310.4L388.9,310.4
		l-4.5,4.5c-18.6,18.6-44.9,24.7-68.6,18.3v50.2L265.3,434V78l127.9,127.9c27.7,27.7,27.7,72.6,0,100.2L388.9,310.4z"/>
</g>
</svg>
