<?xml version="1.0" encoding="utf-8"?>
<!-- Generator: Adobe Illustrator 17.1.0, SVG Export Plug-In . SVG Version: 6.00 Build 0)  -->
<!DOCTYPE svg PUBLIC "-//W3C//DTD SVG 1.1//EN" "http://www.w3.org/Graphics/SVG/1.1/DTD/svg11.dtd">
<svg version="1.1" id="Layer_1" xmlns="http://www.w3.org/2000/svg" xmlns:xlink="http://www.w3.org/1999/xlink" x="0px" y="0px"
	 width="512px" height="512px" viewBox="0 0 512 512" enable-background="new 0 0 512 512" xml:space="preserve">
<g>
	<path d="M43,133.6v66c0,23-25,27.5-25,27.5v58c0,0,25,4.5,25,27.5v66c0,45,24.1,79.5,79,79.5h15v-57.5h-11c-24.1,0-24.1-17-24.1-33
		v-58c0-33-24.5-48.6-47.5-53.6c23-5,47.5-20.6,47.5-53.5v-58c0-16,0-33,24.1-33h11V54.1h-15C67,54.1,43,88.6,43,133.6z"/>
	<path d="M470,199.5v-66c0-45-24.1-79.5-79-79.5h-15v57.5h11c24.1,0,24.1,17,24.1,33v57.9c0,33.1,24.5,48.6,47.5,53.6
		c-23,5.1-47.5,20.6-47.5,53.6v58c0,16,0,33-24.1,33h-11v57.5h15c55,0,79-34.5,79-79.5v-66c0-23,25-27.5,25-27.5v-58
		C495,227,470,222.5,470,199.5z"/>
	<polygon points="285.1,164.2 228.4,164.2 228.4,228 164.6,228 164.6,284.7 228.4,284.7 228.4,348 285.1,348 285.1,284.7 
		348.4,284.7 348.4,228 285.1,228 	"/>
</g>
</svg>
