<?xml version="1.0" encoding="utf-8"?>
<!-- Generator: Adobe Illustrator 17.1.0, SVG Export Plug-In . SVG Version: 6.00 Build 0)  -->
<!DOCTYPE svg PUBLIC "-//W3C//DTD SVG 1.1//EN" "http://www.w3.org/Graphics/SVG/1.1/DTD/svg11.dtd">
<svg version="1.1" id="Layer_1" xmlns="http://www.w3.org/2000/svg" xmlns:xlink="http://www.w3.org/1999/xlink" x="0px" y="0px"
	 width="512px" height="512px" viewBox="0 0 512 512" enable-background="new 0 0 512 512" xml:space="preserve">
<path d="M448,0H64C28.7,0,0,28.7,0,64v384c0,35.3,28.7,64,64,64h384c35.3,0,64-28.7,64-64V64C512,28.7,483.3,0,448,0z M155.8,134.3
	h-9.2c-20.2,0-20.2,14.3-20.2,27.7v48.6c0,27.6-20.5,40.7-39.8,44.9c19.3,4.1,39.8,17.2,39.8,44.9V349c0,13.4,0,27.7,20.2,27.7h9.2
	v48.2h-12.6c-46,0-66.2-29-66.2-66.7v-55.3c0-19.3-21-23.1-21-23.1v-48.6c0,0,21-3.8,21-23.1v-55.3c0-37.8,20.1-66.7,66.2-66.7h12.6
	V134.3z M333.1,279H280v53.1h-47.5V279H179v-47.5h53.5V178H280v53.5h53.1V279z M456,279.8c0,0-21,3.8-21,23.1v55.3
	c0,37.8-20.1,66.7-66.2,66.7h-12.6v-48.2h9.2c20.2,0,20.2-14.3,20.2-27.7v-48.7c0-27.6,20.5-40.6,39.8-44.9
	c-19.3-4.1-39.8-17.1-39.8-44.9v-48.6c0-13.4,0-27.7-20.2-27.7h-9.2V86h12.6c46,0,66.2,29,66.2,66.7V208c0,19.3,21,23.1,21,23.2
	V279.8z"/>
</svg>
