<?xml version="1.0" encoding="utf-8"?>
<!-- Generator: Adobe Illustrator 17.1.0, SVG Export Plug-In . SVG Version: 6.00 Build 0)  -->
<!DOCTYPE svg PUBLIC "-//W3C//DTD SVG 1.1//EN" "http://www.w3.org/Graphics/SVG/1.1/DTD/svg11.dtd">
<svg version="1.1" id="Layer_1" xmlns="http://www.w3.org/2000/svg" xmlns:xlink="http://www.w3.org/1999/xlink" x="0px" y="0px"
	 width="512px" height="512px" viewBox="0 0 512 512" enable-background="new 0 0 512 512" xml:space="preserve">
<g id="Layer_2">
</g>
<g>
	<path fill-rule="evenodd" clip-rule="evenodd" d="M256,1C115.2,1,1,115.2,1,256c0,140.8,114.2,255,255,255
		c140.8,0,255-114.2,255-255C511,115.2,396.8,1,256,1z M339.1,227.1c-44.2,17.1-80.8,14.4-95.8,9.5c-17.1-5.6-27.1-16.9-29.5-23.2
		c-1-2.5-2.6-6.7,0-8.1c1.6-0.9,2.2-0.7,6.5,4.1c4.1,4.5,20.5,16.6,51.6,13.1c81.7-9.2,130.9-72.7,115.4-106.8
		c-10.9-23.9-73.9-34.7-152.6,4.5c-96.1,47.9-101.3,87.3-102.1,102.3c-2.3,41.2,50.9,62.9,79.6,93.6c0.7,0.7,1.3,1.4,2,2.2
		c8.7-3.2,20.7-5.1,39.9-5.4c46.5-0.8,72.7,29.8,71.7,57.2c-0.8,21.6-20.7,30.5-24.3,31.1c-2.7,0.5-4.1,0.5-4.5-1.6
		c-0.3-1.4,0.7-2.1,3.8-4.1c3.1-1.9,12.5-8.4,14.2-20.1c1.7-11.7-7.1-39.6-51.8-44.8c-15.9-1.9-28.3-0.6-39,2.2
		c7.8,17.1,9.2,51.5-8.6,78.1c-18.5,27.6-52.9,44.4-86.4,35c-10.8-3-27.2-25.4-13.1-56.6c13.4-29.6,70.5-58.5,78.3-62.3v-0.1
		c-26.5-22.8-90.8-53.5-99.9-100.5c-2.6-13.3,3.7-45.2,42.8-81.8c32.9-30.8,78.7-54.4,121-69.4C329.3,50,404.4,64.9,416,110.1
		C427.3,154.7,388.6,207.9,339.1,227.1z"/>
	<path fill-rule="evenodd" clip-rule="evenodd" d="M158,374.4c-17.2,18.2-22,40.9-12.4,46.5c8.9,5.1,29.6-1,44.4-17.1
		c4.9-5.3,8.8-11,11.8-17.2c0.6-1.2,1.1-2.5,1.7-3.7c0.5-1.3,1-2.5,1.4-3.8c3.8-11.6,4.2-24.4,0.5-38.1c-0.8,0.4-1.6,0.9-2.3,1.3
		l0,0.1C203,342.3,176.4,354.9,158,374.4z"/>
</g>
</svg>
