<?xml version="1.0" encoding="utf-8"?>
<!-- Generator: Adobe Illustrator 17.1.0, SVG Export Plug-In . SVG Version: 6.00 Build 0)  -->
<!DOCTYPE svg PUBLIC "-//W3C//DTD SVG 1.1//EN" "http://www.w3.org/Graphics/SVG/1.1/DTD/svg11.dtd">
<svg version="1.1" id="Layer_4" xmlns="http://www.w3.org/2000/svg" xmlns:xlink="http://www.w3.org/1999/xlink" x="0px" y="0px"
	 width="512px" height="512px" viewBox="0 0 512 512" enable-background="new 0 0 512 512" xml:space="preserve">
<g>
	<path fill="#231F20" d="M479.5,322.9c0,0-14.9,7-21.8,12.1c-0.4,0.3-0.8,0.6-1.1,0.8c-0.8-4.1-1.6-7.1-2.3-8.2
		c-1,0.2-2.2,0.6-3.4,1.3c-2.2,1.3-3.4,2.9-2.7,3.5c0.7,0.6,1.5,3.7,2.4,8.1c-14.9,12.3-18,20-18,20c5.5,4.4,13.4,6.1,21.6,5.3
		c0,0,0,0,0,0c1.4,12.3,2.2,24.4,1.9,29.4c0.2-0.1,0.5-0.1,0.7-0.2c0.1,0,0.1-0.1,0.2-0.1c2.3-1,4.2-2.6,4.3-3.7
		c0.4-4.5-0.1-15.1-1.1-26.4c5.9-1.4,11.6-3.9,16.6-7.7C490.7,346.9,490.2,331.4,479.5,322.9z"/>
	<path fill="#231F20" d="M464.9,230c-12.8-6-30.1-12.7-48-18.6c0,0,0,0,0,0c-1.4-4.8-6.7-9.5-16.7-14.8l-1.4-0.7l-1.5-0.3
		c-0.1,0-0.3-0.1-0.5-0.1c-4-1.1-24.2-8.2-25.5-41.4c-0.5-13,0.1-22.3,0.6-29.7l0-0.2c1.2-18,1.8-27.1-18.8-39.7l-5.7-3.5
		C328.1,69.1,299,51.3,293,38.6c-2.3-4.8-5.9-8-10.5-9.3c-1.3-0.4-2.8-0.5-4.2-0.5c-3.5,0-8.8,1.1-13.8,6.6
		c-6.3,6.9-11.1,20.2-8,34.4c-2.4,1.1-3.9,2.6-4.6,3.4c-4.3,5.1-3.9,15-2.1,22.6c1.3,5.6,4.3,13.5,10.8,21.2c-0.7,1-1.3,2.2-1.7,3.4
		c-1.2,4-1.2,11.6,2.8,20c2.8,6,8.6,14.2,20.2,20.8c-0.2,0.8-0.3,1.6-0.3,2.4c0,10,16,20.5,30.9,24.5c4.9,1.3,9.8,2.1,14.7,2.2
		c0.7,1.3,1.6,2.6,2.7,4c-5.7,0.1-11.3,0.5-16.6,1.2c-12.8,1.7-24.5,5-35.7,10.3c-6.6,3.1-16.9,7.8-27.9,12.7
		c-11.7,5.3-24.5,11.1-35.4,16.2c-1.1-6.9-2-13.1-2.7-18.6l0-0.2c-4.4-32-6.4-46.6-42.3-63.1L159,148
		c-37.6-17.2-89.1-40.8-103.7-62.7c-4.9-7.3-10.9-11.5-18.1-12.5c-0.9-0.1-1.9-0.2-2.9-0.2c-5.2,0-15,1.9-22,14.4
		c-7.6,13.6-10.4,38.7,0.5,62.8c-4.4,2.4-6.5,5.8-7.3,7.5c-4.6,9.2-0.4,26.1,4.6,37.8c4.1,9.7,12,23.4,26,35.5
		c-1.3,2.3-2.1,5-2.3,7.7c-1,13.7,10.8,48.1,51.6,64c-0.3,2-0.3,4.1,0.2,6.1c3.1,15.6,31.3,29.6,55.7,33c8.6,1.2,17.1,1.2,25.2,0
		c4.7,6.1,12,13.9,22.8,21.2c0.8,2.3,1.5,4.6,2.3,6.9c4.7,14.2,15,28.5,29.1,40.2l0.2,0.2c6.3,6.4,50.1,47.6,149.6,72.6l1,0.2
		c5.7,0.7,11.7,0.7,17.7,0c15.6-2,30.8-9.1,41.5-19.2c13.9-13.2,28.4-28.2,41.2-41.5c3.8-4,7.5-7.8,11-11.4
		c17-17.5,20.7-38.9,22.3-59.4c0.9-12.3,1.3-20.6,1.9-32c0.3-6.9,0.7-15.1,1.4-26.1C510.3,258.2,493.9,243.6,464.9,230z
		 M292.1,163.4c0-5.1,13.7-3.2,13.7-3.2c-35-8.1-38.7-31.1-36.7-37.5c0.3-1,1-1.6,1.9-1.9c3.2,1.6,6.8,2.9,10.5,3.9
		c0.1,0,0.2,0,0.2,0.1c0.2,0.1,0.4,0.1,0.6,0.2c11.5,3.3,23.2,4.3,23.2,4.3c-7.9-1.3-14.1-3.2-18.8-5.2l0.1-0.1
		c-3.1-1.2-5.6-2.5-7.6-3.7c-22.2-14.6-21.4-38.6-18.9-41.7c0.7-0.8,2-1,3.4-0.8c10.9,18.6,47.5,26.1,47.5,26.1
		c-8.8-2.6-16-6-21.6-9.4l-2.8-3.3c-8.7-5.7-13-10.7-13-10.7l-2.6-2.1c-14.5-22.7,5.2-51.8,12.4-36.3c7.7,16.4,40.6,35.6,63.6,49.7
		c22.9,14.1,12.1,18.4,13.9,62.6c1.7,44.3,33.9,50,33.9,50s0.2,0.1,0.5,0.3c-17.3-4.9-33.6-8.6-45.6-9.7c0,0,0,0,0,0
		c-0.2,0-0.4,0-0.6-0.1c-1.9-0.2-3.8-0.3-5.7-0.4c0,0,0,0,0,0c-7.5-7.4-9.2-13.8-9.2-13.8C311.9,183.4,292.1,168.5,292.1,163.4z
		 M275.8,223.9c3.5-1.6,6.7-3.1,9.3-4.3c7.7-3.6,15.8-6.2,24.4-7.8c10.8,0.4,35.7,2.2,65.9,10.7c29.1,8.2,52.7,17.5,66.7,23.7
		l0.4,0.2c3.3,1.5,5.5,3.8,5.8,6.5c0.8,6-7.3,11.9-18.1,13.3c-3.7,0.5-7.2,0.3-10.3-0.3c-4.8,0.4-9.3-0.2-12.6-1.7l-0.7-0.3
		c-14-6.4-36.8-15.8-65.3-24.3c-27.5-8.2-50.9-10.5-62.9-11.2l-0.3,0c-1-0.1-1.8-0.2-2.3-0.5c0.2-0.3-0.2-1.1-0.2-1.5
		C275.7,225.6,275.4,224.9,275.8,223.9z M202.3,354.4c-0.1,0-0.1-0.1-0.1-0.1c-2.5-1.5-4.8-3.1-7-4.6c-0.4-0.3-0.8-0.6-1.3-0.9
		c-4.5-3.4-8.1-6.7-11-9.8c0,0,0-0.1-0.1-0.1c-0.4-0.5-0.9-0.9-1.3-1.4c-0.1-0.1-0.1-0.1-0.2-0.2c-0.4-0.5-0.8-0.9-1.1-1.3
		c-4.8-5.7-6.7-9.8-6.7-9.8c-35,10.1-72.1-11.4-73.9-20.4c-1.8-9.1,20.9-9.2,20.9-9.2c-59.2-5.6-73.2-45.6-72.4-57.5
		c0.1-1.2,0.5-2.1,1.1-2.8c24.3,10.1,64.6,4.5,64.6,4.5c-21.3,0.9-36.1-2.3-45.5-5.6c1.8,0.4,3.6,0.9,5.1,1.3
		c-49.8-17.8-58.3-67.1-55-73.6c0.9-1.8,3.1-2.4,5.7-2.3c25.8,32.4,91.7,36.9,91.7,36.9C70.1,190.1,44,166.9,44,166.9l-4-2.4
		c-37.1-36.3-14.8-98.8,3-72c18.1,27.3,78,53.1,119.8,72.4c36.3,16.7,29.2,26.7,38.7,80.1c0,0,0,0.1,0,0.1c0.3,1.8,0.7,3.7,1,5.7
		c0.1,0.4,0.2,0.8,0.2,1.3c0.1,0.5,0.2,1,0.3,1.5c0.1,0.5,0.2,1,0.3,1.4c0.1,0.5,0.2,1,0.3,1.5c0.1,0.5,0.2,1.1,0.3,1.6
		c0.1,0.5,0.2,1,0.3,1.5c0.1,0.6,0.2,1.1,0.4,1.7c0.1,0.5,0.2,1,0.3,1.5c0.1,0.6,0.3,1.2,0.4,1.8c0.1,0.5,0.2,0.9,0.3,1.4
		c0.2,0.7,0.3,1.4,0.5,2.2c0.1,0.4,0.2,0.8,0.3,1.1c0.3,1.1,0.5,2.3,0.8,3.4c0.3,1.1,0.5,2.2,0.8,3.3c0.2,0.7,0.3,1.3,0.5,2
		c0.1,0.4,0.2,0.7,0.3,1.1c0.2,0.9,0.5,1.7,0.7,2.5c0,0.1,0.1,0.2,0.1,0.3c0.3,0.9,0.6,1.9,0.8,2.8c0,0,0,0,0,0
		c20.8,66.4,68.9,68.3,68.9,68.3s59.5,22.9-13.5,19c-27.2-1.5-47-8.2-61-16.1C204,355.4,203.2,354.9,202.3,354.4z M373.4,461.5
		c-34.3-3.5-81.5-24.1-116-43.5c-16.5-11-24.1-18.9-24.3-19.1l-1-1.1l-0.6-0.3c-8.2-7-14.8-14.9-19.3-23c10.3,4.1,22.4,7.4,36.7,9.3
		c5.2,0.7,10.5,1.2,16,1.5c6.4,0.3,11.7,0.5,16.3,0.5c0,0,0,0,0,0c16.1,0,31.4-1.8,34.9-14.7c2-7.3,1-18.4-31.1-30.7l-2.2-0.8
		l-2.3-0.1c-0.1,0-0.5,0-1-0.1c-6.4-0.9-36.3-7.3-52.9-51.9c12.5,2.7,26.1,6.6,39.1,11.2c36.5,12.8,83.1,40.2,94.6,55
		C371.9,368.4,387.8,462.9,373.4,461.5z M373,306.7c-6.6,0.8-12.4,0.2-16.8-1.8l-0.3-0.2c-16.3-7.9-42.8-19.8-74.8-30.1
		c-25-8.1-46.8-11.7-61.7-13.3c-0.8-3.7-1.5-7.3-2.2-10.7c4.9-2.3,10.2-4.8,15.9-7.3c2.3-0.4,4.4-0.6,6-0.5l0.4,0
		c10.3,0.3,39.2,2.3,74.7,13.4c31.1,9.7,56.4,20.5,71.9,27.8l0.4,0.2c3.9,1.7,6.5,4.3,6.9,7.5C394.2,298.4,385.1,305.1,373,306.7z
		 M495.1,323.5c-0.3,19-1.9,36.3-3.9,43.7c-0.1,0.2-0.1,0.5-0.2,0.7c0,0.1-0.1,0.2-0.1,0.3c-0.1,0.2-0.1,0.4-0.2,0.6
		c0,0.1-0.1,0.2-0.1,0.3c-0.1,0.2-0.2,0.4-0.3,0.6c-0.1,0.1-0.1,0.2-0.2,0.4c-0.1,0.2-0.2,0.4-0.3,0.6c-0.1,0.1-0.1,0.2-0.2,0.4
		c-0.2,0.3-0.3,0.6-0.5,1c-0.1,0.1-0.2,0.3-0.2,0.4c-0.1,0.2-0.2,0.4-0.4,0.7c-0.1,0.2-0.2,0.4-0.3,0.6c-0.1,0.2-0.2,0.4-0.3,0.6
		c-0.1,0.2-0.3,0.4-0.4,0.6c-0.1,0.2-0.2,0.4-0.3,0.5c-0.1,0.2-0.3,0.5-0.4,0.7c-0.1,0.2-0.2,0.3-0.3,0.5c-0.6,0.9-1.3,1.9-2,2.9
		c-0.1,0.1-0.1,0.2-0.2,0.3c-0.2,0.3-0.5,0.6-0.7,1c-0.1,0.1-0.2,0.3-0.3,0.4c-0.2,0.3-0.5,0.7-0.7,1c-0.1,0.1-0.2,0.2-0.2,0.3
		c-0.3,0.4-0.5,0.7-0.8,1.1c-10.5,14.3-27.6,33.7-42.6,49.3c-5.1,5.3-9.9,10.1-14.2,14.2c0,0,0,0,0,0c-7.3,6.9-13,11.4-15.1,11.7
		c-9,1.2-18.6-89.5-14.5-103.9c4.1-14.5,28.2-33.7,47.7-51.2c18.6-16.8,41.2-30.7,48.2-25.7c0.1,0.1,0.3,0.2,0.4,0.3
		c0.2,0.1,0.3,0.3,0.5,0.5C495.4,283.1,495.5,299.1,495.1,323.5z"/>
	<path fill="#231F20" d="M260.6,268.2c6.2,1.5,12.7,3.4,19.5,5.6c1.2,0.4,2.5,0.8,3.7,1.2c-1.2-0.4-2.5-0.8-3.7-1.2
		C273.3,271.5,266.8,269.7,260.6,268.2z"/>
	<path fill="#231F20" d="M351.2,302.4L351.2,302.4c0.5,0.2,0.9,0.4,1.4,0.6C352.1,302.8,351.6,302.6,351.2,302.4L351.2,302.4z"/>
</g>
</svg>
